<?xml version="1.0" encoding="UTF-8"?>
<!DOCTYPE svg PUBLIC "-//W3C//DTD SVG 1.1//EN" "http://www.w3.org/Graphics/SVG/1.1/DTD/svg11.dtd">
<!-- Creator: CorelDRAW 2021 (64-Bit) -->
<svg xmlns="http://www.w3.org/2000/svg" xml:space="preserve" width="4.8in" height="6.05in" version="1.1" style="shape-rendering:geometricPrecision; text-rendering:geometricPrecision; image-rendering:optimizeQuality; fill-rule:evenodd; clip-rule:evenodd"
viewBox="0 0 4800 6050"
 xmlns:xlink="http://www.w3.org/1999/xlink"
 xmlns:xodm="http://www.corel.com/coreldraw/odm/2003">
 <defs>
  <style type="text/css">
   <![CDATA[
    .fil1 {fill:#000066}
    .fil0 {fill:#FFE479}
    .fil3 {fill:#FFCC00;fill-rule:nonzero}
    .fil2 {fill:white;fill-rule:nonzero}
   ]]>
  </style>
 </defs>
 <g id="Layer_x0020_1">
  <metadata id="CorelCorpID_0Corel-Layer"/>
  <rect class="fil0" transform="matrix(2.37819E-14 -0.747213 1.05229 2.31909E-14 98.809 5897.92)" width="7689.71" height="4373.7"/>
 </g>
 <g id="Layer_x0020_1_0">
  <metadata id="CorelCorpID_1Corel-Layer"/>
  <rect class="fil1" x="777.89" y="2507.97" width="3094.3" height="965.78" rx="82.46" ry="120.01"/>
  <path class="fil2" d="M1601.56 2950.12l246.69 0c19.19,0 36.33,-4.59 51.28,-13.92 14.94,-9.34 26.48,-22.41 34.63,-39.56 7.98,-17.15 12.06,-36.67 12.06,-58.91l0 0c0,-22.24 -4.07,-41.94 -12.06,-58.92 -8.15,-17.15 -19.69,-30.39 -34.46,-39.56 -14.6,-9.34 -31.92,-13.93 -51.44,-13.93l-246.69 0 0 -96.6 242.78 0c41.77,0 78.44,8.66 110.19,25.98 31.58,17.15 56.2,41.59 73.52,73.34 17.49,31.58 26.15,68.25 26.15,109.68l0 0c0,41.43 -8.83,77.93 -26.31,109.68 -17.66,31.58 -42.28,56.03 -73.85,73.34 -31.75,17.15 -68.25,25.81 -109.68,25.81l-242.78 0 0 -96.43zm-44.31 -321.39l101.53 0 0 723.77 -101.53 0 0 -723.77zm241.26 395.42l101.02 -22.75 185.06 351.11 -120.37 0 -165.7 -328.35z"/>
  <polygon id="_1" class="fil2" points="2322.79,3352.5 2221.26,3352.5 2221.26,2629.23 2322.79,2629.23 "/>
  <path id="_2" class="fil2" d="M2719.22 3359.96c-34.8,0 -67.91,-3.39 -98.98,-10.02 -31.24,-6.62 -60.27,-16.47 -87.44,-29.71 -27,-13.41 -52.29,-29.88 -75.72,-49.74l0 0 63.16 -77.59 0 0c27.5,23.77 57.89,41.77 91,53.65 33.11,11.88 69.1,17.83 107.98,17.83 52.3,0 92.87,-9.68 121.74,-29.04 28.86,-19.35 43.29,-46.86 43.29,-82.34l0 -0.51c0,-25.13 -6.45,-45.16 -19.52,-59.93 -13.24,-14.77 -30.05,-25.64 -50.76,-32.77 -20.71,-7.13 -47.54,-13.75 -80.31,-19.69 -1.02,-0.34 -2.21,-0.51 -3.22,-0.51 -1.19,0 -2.38,-0.17 -3.4,-0.51l-7.3 -1.36c-48.56,-8.32 -87.94,-17.66 -118.17,-28.19 -30.39,-10.53 -56.37,-29.54 -77.93,-57.22 -21.56,-27.67 -32.26,-67.06 -32.26,-118.17l0 -0.51c0,-44.65 10.02,-82.85 30.05,-114.6 20.03,-31.58 49.41,-55.86 87.78,-72.33 38.54,-16.64 84.72,-24.96 138.88,-24.96 25.8,0 51.27,2.89 76.23,8.49 25.13,5.6 49.75,14.09 74.2,25.13 24.28,11.04 48.22,25.13 71.81,42.11l0 0 -57.72 80.48 0 0c-27.5,-20.2 -54.84,-35.31 -82.34,-45.5 -27.33,-10.02 -54.67,-15.11 -82.17,-15.11 -49.41,0 -87.95,9.85 -115.28,29.54 -27.33,19.69 -40.92,47.71 -40.92,83.87l0 0.51c0,24.79 6.96,44.31 21.06,58.57 14.09,14.26 31.75,24.79 52.8,31.58 21.06,6.79 50.26,13.92 87.78,21.22 1.36,0.34 2.54,0.51 3.73,0.68 1.19,0.17 2.38,0.51 3.74,0.85 1.53,0.34 3.4,0.68 5.43,1.02 2.04,0.34 3.74,0.51 5.43,0.85 43.8,9 80.31,19.69 109.68,31.92 29.37,12.22 53.99,32.09 73.69,59.43 19.69,27.33 29.54,64.69 29.54,112.22l0 1.02c0,43.98 -10.36,81.67 -31.24,113.07 -21.06,31.41 -51.28,55.18 -90.83,71.65 -39.73,16.47 -87.44,24.62 -143.46,24.62z"/>
  <polygon id="_3" class="fil2" points="3638.93,2629.23 3733.83,2629.23 3733.83,3352.5 3634.85,3352.5 3634.85,2810.9 3639.94,2842.65 3461.84,3251.98 3391.21,3251.98 3213.11,2852.66 3218.04,2810.9 3218.04,3352.5 3119.06,3352.5 3119.06,2629.23 3214.13,2629.23 3426.53,3106.82 "/>
  <path class="fil3" d="M1037.82 2974.76l35.17 0 96.15 96.6 -35.17 0 -96.15 -96.6zm70.26 0l35.17 0 93.3 93.74c-10.45,1.56 -21.25,2.48 -32.41,2.77l-96.05 -96.5zm-9.21 96.6l-35.17 0 -147.46 -148.17 0 -35.34 182.63 183.5zm-182.63 -218.76l0 -35.34 101.53 102.02 0 35.33 -101.53 -102.01zm0 -70.6l0 -35.34 101.53 102.02 0 35.34 -101.53 -102.02zm112.37 289.36l-10.84 0 0 24.45 -101.53 -102.02 0 -35.34 112.37 112.91zm-10.84 59.71l0 35.33 -101.53 -102.01 0 -35.34 101.53 102.02zm0 70.6l0 35.34 -101.53 -102.02 0 -35.34 101.53 102.02zm0 70.6l0 35.34 -101.53 -102.02 0 -35.34 101.53 102.02zm0 70.6l0 8.98 -26.24 0 -75.3 -75.65 0 -35.34 101.53 102.02zm-61.33 8.98l-40.2 0 0 -40.39 40.2 40.39zm221.9 -377.08l21.43 0c4.48,0 8.84,-0.21 13.1,-0.64l78.68 79.05c-8.39,3.58 -17.07,6.64 -26.05,9.17l-87.16 -87.57zm62.96 -7.34c5.65,-2.2 11.04,-4.91 16.2,-8.11 2.25,-1.38 4.43,-2.84 6.54,-4.38l71.8 72.15c-6.59,5.16 -13.57,9.93 -20.94,14.3l-73.6 -73.95zm40.77 -29.63c5.23,-6.42 9.79,-13.61 13.7,-21.57l74.89 75.26c-5.03,6.72 -10.45,13.06 -16.26,18.99l-72.33 -72.68zm23.07 -47.42c2.43,-9.72 3.91,-20.02 4.43,-30.88l86.56 86.97c-2.85,6.92 -6.05,13.64 -9.6,20.15 -0.65,1.2 -1.31,2.38 -1.97,3.56l-79.42 -79.8zm2.49 -68.09c-2.19,-13.61 -6.06,-26.11 -11.6,-37.5 -9.17,-18.85 -21.9,-33.62 -38.54,-43.98 -13.59,-8.6 -28.89,-13.57 -45.98,-15.11l-96.66 -97.12 35.17 0 260.96 262.21c-1.42,10.12 -3.4,19.91 -5.94,29.36l-97.4 -97.87zm-122.52 -193.7l11.26 0c8.54,0 16.86,0.36 24.98,1.08l190.97 191.89c0.91,9.37 1.37,19.02 1.37,28.94 0,2.57 -0.03,5.13 -0.09,7.68l-228.48 -229.58zm78.9 8.68c16.4,4.54 31.81,10.87 46.28,18.99 32.77,18.34 58.24,44.31 76.23,77.76 7.5,13.87 13.43,28.62 17.81,44.25l-140.33 -141zm-88.11 87.93l-35.17 0 -96.15 -96.61 35.17 0 96.15 96.61zm-70.26 0l-35.17 0 -96.15 -96.61 8.87 0 26.3 0 96.15 96.61zm-70.26 0l-17.61 0 0 17.63 -101.53 -102.01 0 -12.23 23 0 96.15 96.61zm-17.61 52.9l0 35.34 -101.53 -102.02 0 -35.34 101.53 102.02z"/>
 </g>
</svg>
