<?xml version="1.0" encoding="UTF-8"?>
<!DOCTYPE svg PUBLIC "-//W3C//DTD SVG 1.1//EN" "http://www.w3.org/Graphics/SVG/1.1/DTD/svg11.dtd">
<!-- Creator: CorelDRAW 2021 (64-Bit) -->
<svg xmlns="http://www.w3.org/2000/svg" xml:space="preserve" width="2.5in" height="2.5in" version="1.1" style="shape-rendering:geometricPrecision; text-rendering:geometricPrecision; image-rendering:optimizeQuality; fill-rule:evenodd; clip-rule:evenodd"
viewBox="0 0 2500 2500"
 xmlns:xlink="http://www.w3.org/1999/xlink"
 xmlns:xodm="http://www.corel.com/coreldraw/odm/2003">
 <defs>
  <style type="text/css">
   <![CDATA[
    .str0 {stroke:black;stroke-width:6.94;stroke-linecap:round;stroke-linejoin:round;stroke-miterlimit:2.61313}
    .fil0 {fill:#FFCC00}
   ]]>
  </style>
 </defs>
 <g id="Layer_x0020_1">
  <metadata id="CorelCorpID_0Corel-Layer"/>
  <path class="fil0 str0" d="M803.11 394.66l446.89 531.69 446.9 -531.69c63.95,-76.09 188,-78.05 275.69,-4.35 87.67,73.69 107.07,196.22 43.12,272.31l-493.69 587.38 493.69 587.38c63.95,76.09 44.55,198.63 -43.12,272.31 -87.69,73.7 -211.74,71.74 -275.69,-4.35l-446.9 -531.69 -446.89 531.69c-63.95,76.08 -188,78.05 -275.69,4.35 -87.67,-73.69 -107.07,-196.25 -43.13,-272.33l493.69 -587.37 -493.69 -587.37c-63.94,-76.08 -44.54,-198.64 43.13,-272.33 87.69,-73.7 211.74,-71.72 275.69,4.35z"/>
 </g>
</svg>
