<?xml version="1.0" encoding="UTF-8"?>
<!DOCTYPE svg PUBLIC "-//W3C//DTD SVG 1.1//EN" "http://www.w3.org/Graphics/SVG/1.1/DTD/svg11.dtd">
<!-- Creator: CorelDRAW 2021 (64-Bit) -->
<svg xmlns="http://www.w3.org/2000/svg" xml:space="preserve" width="10.65in" height="3.45in" version="1.1" style="shape-rendering:geometricPrecision; text-rendering:geometricPrecision; image-rendering:optimizeQuality; fill-rule:evenodd; clip-rule:evenodd"
viewBox="0 0 10650 3450"
 xmlns:xlink="http://www.w3.org/1999/xlink"
 xmlns:xodm="http://www.corel.com/coreldraw/odm/2003">
 <defs>
  <style type="text/css">
   <![CDATA[
    .fil0 {fill:#ffe479}
    .fil1 {fill:black;fill-rule:nonzero}
    .fil2 {fill:#000066;fill-rule:nonzero}
   ]]>
  </style>
 </defs>
 <g id="Layer_x0020_1">
  <metadata id="CorelCorpID_0Corel-Layer"/>
  <rect class="fil0" x="50.75" y="78.82" width="10548.49" height="3292.35" rx="281.11" ry="409.11"/>
  <g id="_1949722266816">
   <path class="fil1" d="M2858.65 1586.09l840.97 0c65.4,0 123.86,-15.63 174.79,-47.46 50.93,-31.83 90.29,-76.4 118.07,-134.86 27.2,-58.46 41.09,-125.02 41.09,-200.84l0 0c0,-75.82 -13.89,-142.96 -41.09,-200.84 -27.78,-58.46 -67.14,-103.6 -117.5,-134.85 -49.78,-31.83 -108.81,-47.46 -175.37,-47.46l-840.97 0 0 -329.33 827.66 0c142.38,0 267.4,29.52 375.63,88.56 107.65,58.46 191.58,141.8 250.61,250.04 59.61,107.65 89.13,232.67 89.13,373.89l0 0c0,141.22 -30.1,265.66 -89.71,373.89 -60.19,107.65 -144.12,191 -251.77,250.04 -108.23,58.46 -232.67,87.98 -373.89,87.98l-827.66 0 0 -328.75zm-151.06 -1095.64l346.11 0 0 2467.36 -346.11 0 0 -2467.36zm822.45 1347.99l344.37 -77.56 630.88 1196.93 -410.36 0 -564.89 -1119.37z"/>
   <polygon id="_1" class="fil1" points="5317.33,2957.81 4971.22,2957.81 4971.22,492.19 5317.33,492.19 "/>
   <path id="_2" class="fil1" d="M6668.79 2983.28c-118.65,0 -231.51,-11.57 -337.43,-34.15 -106.5,-22.57 -205.47,-56.14 -298.07,-101.29 -92.03,-45.72 -178.27,-101.87 -258.14,-169.58l0 0 215.31 -264.5 0 0c93.76,81.03 197.37,142.38 310.23,182.89 112.86,40.52 235.57,60.77 368.11,60.77 178.27,0 316.59,-32.99 414.99,-98.97 98.39,-65.98 147.59,-159.74 147.59,-280.71l0 -1.74c0,-85.66 -21.99,-153.96 -66.56,-204.31 -45.15,-50.35 -102.44,-87.4 -173.06,-111.7 -70.61,-24.31 -162.06,-46.88 -273.76,-67.14 -3.47,-1.16 -7.52,-1.74 -11,-1.74 -4.05,0 -8.1,-0.58 -11.57,-1.74l-24.89 -4.63c-165.53,-28.36 -299.81,-60.19 -402.83,-96.08 -103.6,-35.88 -192.15,-100.7 -265.66,-195.05 -73.5,-94.34 -109.97,-228.62 -109.97,-402.83l0 -1.74c0,-152.22 34.15,-282.45 102.44,-390.68 68.3,-107.65 168.43,-190.42 299.23,-246.56 131.38,-56.72 288.81,-85.08 473.44,-85.08 87.98,0 174.79,9.84 259.87,28.94 85.66,19.1 169.58,48.04 252.93,85.66 82.77,37.62 164.37,85.66 244.83,143.54l0 0 -196.79 274.34 0 0c-93.76,-68.87 -186.95,-120.39 -280.71,-155.11 -93.18,-34.15 -186.37,-51.51 -280.13,-51.51 -168.43,0 -299.81,33.57 -392.99,100.71 -93.19,67.14 -139.49,162.64 -139.49,285.92l0 1.74c0,84.5 23.73,151.06 71.77,199.68 48.04,48.62 108.23,84.5 180,107.65 71.77,23.15 171.32,47.46 299.23,72.35 4.63,1.16 8.69,1.74 12.74,2.31 4.05,0.58 8.1,1.74 12.73,2.89 5.21,1.16 11.57,2.31 18.52,3.47 6.94,1.16 12.74,1.74 18.52,2.89 149.33,30.68 273.76,67.14 373.89,108.81 100.13,41.67 184.05,109.39 251.19,202.57 67.14,93.19 100.71,220.52 100.71,382.58l0 3.47c0,149.91 -35.31,278.39 -106.5,385.47 -71.77,107.07 -174.8,188.11 -309.65,244.25 -135.44,56.14 -298.07,83.92 -489.07,83.92z"/>
   <polygon id="_3" class="fil1" points="9804.06,492.19 10127.6,492.19 10127.6,2957.81 9790.17,2957.81 9790.17,1111.49 9807.54,1219.72 9200.39,2615.17 8959.62,2615.17 8352.47,1253.87 8369.26,1111.49 8369.26,2957.81 8031.83,2957.81 8031.83,492.19 8355.94,492.19 9080,2120.31 "/>
   <path class="fil2" d="M936.85 1670.1l119.89 0 327.76 329.33 -119.89 0 -327.76 -329.33zm239.52 0l119.89 0 318.03 319.56c-35.61,5.29 -72.44,8.44 -110.5,9.43l-327.43 -328.99zm-31.4 329.33l-119.89 0 -502.7 -505.11 0 -120.46 622.59 625.57zm-622.59 -745.78l0 -120.46 346.11 347.77 0 120.46 -346.11 -347.77zm0 -240.67l0 -120.46 346.11 347.77 0 120.46 -346.11 -347.77zm383.06 986.45l-36.95 0 0 83.33 -346.11 -347.77 0 -120.46 383.06 384.9zm-36.95 203.54l0 120.46 -346.11 -347.77 0 -120.46 346.11 347.77zm0 240.67l0 120.46 -346.11 -347.77 0 -120.46 346.11 347.78zm0 240.67l0 120.46 -346.11 -347.77 0 -120.46 346.11 347.77zm0 240.67l0 30.59 -89.44 0 -256.67 -257.91 0 -120.46 346.11 347.77zm-209.07 30.59l-137.04 0 0 -137.69 137.04 137.69zm756.47 -1285.48l73.06 0c15.27,0 30.15,-0.72 44.65,-2.19l268.21 269.5c-28.61,12.2 -58.2,22.62 -88.8,31.23l-297.12 -298.54zm214.63 -25.01c19.25,-7.51 37.65,-16.72 55.22,-27.66 7.68,-4.7 15.1,-9.67 22.3,-14.92l244.77 245.94c-22.47,17.59 -46.26,33.84 -71.37,48.75l-250.91 -252.11zm138.98 -101.03c17.82,-21.88 33.36,-46.39 46.71,-73.52l255.32 256.54c-17.15,22.92 -35.64,44.51 -55.45,64.75l-246.58 -247.77zm78.65 -161.64c8.3,-33.15 13.34,-68.24 15.12,-105.26l295.08 296.49c-9.72,23.59 -20.63,46.49 -32.74,68.67 -2.2,4.08 -4.45,8.12 -6.72,12.14l-270.74 -272.04zm8.5 -232.13c-7.48,-46.42 -20.65,-89.04 -39.54,-127.85 -31.26,-64.25 -74.67,-114.6 -131.39,-149.91 -46.35,-29.33 -98.5,-46.28 -156.77,-51.5l-329.5 -331.08 119.89 0 889.61 893.87c-4.85,34.51 -11.6,67.87 -20.28,100.09l-332.04 -333.63zm-417.67 -660.33l38.38 0c29.09,0 57.48,1.23 85.17,3.68l651.02 654.14c3.11,31.96 4.66,64.84 4.66,98.65 0,8.79 -0.11,17.51 -0.31,26.17l-778.91 -782.65zm268.97 29.59c55.9,15.48 108.46,37.04 157.78,64.75 111.7,62.51 198.52,151.06 259.87,265.08 25.56,47.3 45.79,97.56 60.74,150.85l-478.39 -480.69zm-300.37 299.74l-119.89 0 -327.76 -329.33 119.89 0 327.76 329.33zm-239.52 0l-119.89 0 -327.76 -329.33 30.22 0 89.66 0 327.76 329.33zm-239.52 0l-60.05 0 0 60.12 -346.11 -347.77 0 -41.68 78.41 0 327.76 329.33zm-60.05 180.33l0 120.46 -346.11 -347.77 0 -120.46 346.11 347.78z"/>
  </g>
 </g>
</svg>
